Coordinates
version=1
nRows=10
nColumns=40
inDegrees=yes

Units are S.I. units (second, meters, Newtons, ...)
Angles are in degrees.

endheader
time	pelvis_tilt	pelvis_list	pelvis_rotation	pelvis_tx	pelvis_ty	pelvis_tz	hip_flexion_r	hip_adduction_r	hip_rotation_r	knee_angle_r	knee_angle_r_beta	ankle_angle_r	subtalar_angle_r	mtp_angle_r	hip_flexion_l	hip_adduction_l	hip_rotation_l	knee_angle_l	knee_angle_l_beta	ankle_angle_l	subtalar_angle_l	mtp_angle_l	lumbar_extension	lumbar_bending	lumbar_rotation	arm_flex_r	arm_add_r	arm_rot_r	elbow_flex_r	pro_sup_r	wrist_flex_r	wrist_dev_r	arm_flex_l	arm_add_l	arm_rot_l	elbow_flex_l	pro_sup_l	wrist_flex_l	wrist_dev_l
     53.46500000	     -3.67186728	     -6.43391654	      8.51937341	      0.91286787	      0.91987126	      0.45659571	     -1.37792634	      4.06607279	    -18.24977768	     14.99465098	     14.99465098	     17.46836286	     -3.63003686	     -1.46353924	     27.75358854	     -5.92641338	      2.97687517	     28.43650371	     28.43650371	      8.85847281	    -11.22132091	      1.59181436	     -7.95163974	      2.36898672	      4.30331194	     56.33467546	    -18.27540342	     -5.14290888	     79.81374191	     44.66695753	      0.00000000	      0.00000000	    -13.39403814	     -9.74941213	     12.49964719	     30.96326489	     44.75191110	      0.00000000	      0.00000000
     53.48457143	     -3.87590819	     -6.27487807	      8.07719272	      0.91210893	      0.92090958	      0.45293924	     -0.81023155	      3.34584224	    -17.93224498	     16.38939183	     16.38939183	     17.15843199	     -4.06329886	     -1.62166810	     27.21325403	     -5.77155075	      2.23643654	     28.03924962	     28.03924962	      9.34272420	    -10.80842086	      1.51116324	     -7.86937163	      2.13451139	      4.26889375	     55.84826019	    -17.96224363	     -5.14109435	     79.16783220	     44.69320168	      0.00000000	      0.00000000	    -12.61599742	     -9.99840916	     12.21787370	     31.19261697	     44.81363151	      0.00000000	      0.00000000
     53.50414286	     -4.01302846	     -6.13706913	      7.64398758	      0.91127542	      0.92217338	      0.44937115	     -0.23482130	      2.66027830	    -17.55485668	     17.86823115	     17.86823115	     16.72388061	     -4.57570059	     -1.83355565	     26.54915693	     -5.64445521	      1.50490415	     27.51848551	     27.51848551	      9.73784635	    -10.35614772	      1.41252813	     -7.87056532	      1.93763176	      4.12378798	     55.13822535	    -17.57786639	     -5.07430497	     78.53939755	     44.71476197	      0.00000000	      0.00000000	    -11.79133186	    -10.26085251	     11.96120408	     31.38753443	     44.87060308	      0.00000000	      0.00000000
     53.52371429	     -4.17014712	     -5.99877564	      7.22609773	      0.91030423	      0.92342382	      0.44592388	      0.53123638	      1.95686931	    -17.12293277	     19.61594287	     19.61594287	     16.22180718	     -5.32752698	     -2.21157645	     25.88534704	     -5.52274525	      0.72411708	     26.92605356	     26.92605356	     10.09092126	     -9.78989509	      1.22323571	     -7.81618718	      1.76174949	      3.91995817	     54.28287661	    -17.14370088	     -5.01811416	     77.76243356	     44.74290189	      0.00000000	      0.00000000	    -10.83800599	    -10.55602686	     11.64275198	     31.51705788	     44.94030604	      0.00000000	      0.00000000
     53.54328571	     -4.25152843	     -5.83718834	      6.83490218	      0.90935385	      0.92482828	      0.44251189	      1.27223747	      1.24422787	    -16.70558237	     21.43608857	     21.43608857	     15.64609025	     -6.14094175	     -2.64209730	     25.06845897	     -5.36592968	     -0.06558040	     26.19591417	     26.19591417	     10.37954590	     -9.23318289	      1.02922428	     -7.82273072	      1.59375632	      3.63106487	     53.13016426	    -16.72147849	     -4.92306964	     76.99791286	     44.76669917	      0.00000000	      0.00000000	     -9.81096313	    -10.85983937	     11.38095125	     31.58449692	     45.00091846	      0.00000000	      0.00000000
     53.56285714	     -4.32254342	     -5.69111166	      6.46793246	      0.90836105	      0.92619665	      0.43915314	      2.11461095	      0.55081019	    -16.27528557	     23.41692389	     23.41692389	     14.95621708	     -7.10219323	     -3.18581942	     24.24632231	     -5.20694393	     -0.82649314	     25.44510783	     25.44510783	     10.58879832	     -8.67106775	      0.76975729	     -7.81323171	      1.45423597	      3.32681680	     51.75163769	    -16.32353585	     -4.83945996	     76.12557924	     44.79380045	      0.00000000	      0.00000000	     -8.63789755	    -11.16134075	     11.13499259	     31.54772920	     45.06172815	      0.00000000	      0.00000000
     53.58242857	     -4.33622088	     -5.50563295	      6.12830269	      0.90745691	      0.92758381	      0.43576706	      2.93103965	     -0.17691802	    -15.88870897	     25.45797685	     25.45797685	     14.21320837	     -8.09677744	     -3.71726149	     23.34220451	     -4.97972660	     -1.54915131	     24.66064412	     24.66064412	     10.77257429	     -8.16210247	      0.53141227	     -7.82008720	      1.31732982	      2.97703311	     50.07135400	    -15.96258895	     -4.72589656	     75.21390533	     44.81833113	      0.00000000	      0.00000000	     -7.40709357	    -11.45800443	     10.95609514	     31.47442652	     45.11200768	      0.00000000	      0.00000000
     53.60200000	     -4.33549657	     -5.42605449	      5.80068281	      0.90654115	      0.92877684	      0.43249261	      3.73393987	     -0.68564231	    -15.31154164	     27.31867256	     27.31867256	     12.46438255	    -10.03619957	     -6.41674315	     22.44409573	     -4.84278904	     -2.17271762	     23.82918720	     23.82918720	     10.48927476	     -7.87623333	     -0.93837757	     -7.75747390	      1.34115082	      2.82257941	     48.37436629	    -15.53405915	     -5.08981787	     73.43259219	     44.91931005	      0.00000000	      0.00000000	     -5.26701810	    -11.34297815	     10.43307954	     29.37501711	     45.26501887	      0.00000000	      0.00000000
     53.62157143	     -4.28185578	     -5.22505211	      5.49893838	      0.90569348	      0.92992089	      0.42912218	      4.64706325	     -1.45878125	    -15.09869408	     29.64643022	     29.64643022	     11.64512460	    -11.03837806	     -6.77598284	     21.54073504	     -4.53085312	     -2.70195034	     23.15392526	     23.15392526	     10.70192433	     -7.60185642	     -1.01567835	     -7.81383084	      1.24939045	      2.46860189	     46.17607551	    -15.24775395	     -4.83803306	     72.51985947	     44.93564506	      0.00000000	      0.00000000	     -3.96723140	    -11.68355718	     10.30641114	     29.62031044	     45.30797403	      0.00000000	      0.00000000
     53.64114286	     -4.22840155	     -5.04184187	      5.17663738	      0.90480504	      0.93080372	      0.42583187	      5.69544105	     -2.17757661	    -14.74431470	     32.15222178	     32.15222178	     10.63139351	    -12.42261779	     -7.14766087	     20.71944418	     -4.22029990	     -3.13487573	     22.60701714	     22.60701714	     10.89705862	     -7.46399949	     -1.16323284	     -7.84341990	      1.21615788	      2.27923451	     43.84744787	    -15.07196565	     -4.63462285	     71.22576156	     44.96629212	      0.00000000	      0.00000000	     -2.42985901	    -11.93775564	     10.23859714	     29.66235383	     45.34723943	      0.00000000	      0.00000000
